<svg width="116" height="159" viewBox="0 0 116 159" fill="none" xmlns="http://www.w3.org/2000/svg">
<rect x="0.5" y="0.5" width="115" height="158" rx="7.5" fill="white"/>
<rect x="0.5" y="0.5" width="115" height="158" rx="7.5" stroke="#070606"/>
<rect width="100" height="80" transform="translate(8 12)" fill="#E7FFE8"/>
<path d="M55.5 53.75C55.5 54.72 56.25 55.5 57.17 55.5H59.05C59.85 55.5 60.5 54.82 60.5 53.97C60.5 53.06 60.1 52.73 59.51 52.52L56.5 51.47C55.91 51.26 55.51 50.94 55.51 50.02C55.51 49.18 56.16 48.49 56.96 48.49H58.84C59.76 48.49 60.51 49.27 60.51 50.24" stroke="#2C8801" stroke-width="1.5" stroke-linecap="round" stroke-linejoin="round"/>
<path d="M58 47.5V56.5" stroke="#2C8801" stroke-width="1.5" stroke-linecap="round" stroke-linejoin="round"/>
<path d="M68 52C68 57.52 63.52 62 58 62C52.48 62 48 57.52 48 52C48 46.48 52.48 42 58 42" stroke="#2C8801" stroke-width="1.5" stroke-linecap="round" stroke-linejoin="round"/>
<path d="M68 46V42H64" stroke="#2C8801" stroke-width="1.5" stroke-linecap="round" stroke-linejoin="round"/>
<path d="M63 47L68 42" stroke="#2C8801" stroke-width="1.5" stroke-linecap="round" stroke-linejoin="round"/>
<path d="M8.41602 108.674H9.47656C9.57617 109.588 10.4434 110.191 11.6504 110.191C12.793 110.191 13.625 109.588 13.625 108.756C13.625 108.041 13.127 107.602 11.9902 107.309L10.9062 107.027C9.34766 106.629 8.65625 105.943 8.65625 104.795C8.65625 103.389 9.88672 102.404 11.6445 102.404C13.3262 102.404 14.5449 103.4 14.5918 104.818H13.5371C13.4434 103.91 12.7109 103.354 11.6094 103.354C10.5137 103.354 9.75195 103.922 9.75195 104.748C9.75195 105.387 10.2207 105.768 11.3691 106.066L12.2539 106.301C14.0059 106.74 14.7148 107.414 14.7148 108.627C14.7148 110.174 13.4961 111.141 11.5508 111.141C9.75781 111.141 8.51562 110.168 8.41602 108.674ZM18.2305 105.686C17.2754 105.686 16.6074 106.418 16.543 107.432H19.8535C19.8301 106.412 19.1914 105.686 18.2305 105.686ZM19.8301 109.254H20.832C20.6562 110.32 19.625 111.105 18.2949 111.105C16.5488 111.105 15.4883 109.893 15.4883 107.977C15.4883 106.084 16.5664 104.801 18.248 104.801C19.8945 104.801 20.9082 105.996 20.9082 107.842V108.229H16.5371V108.287C16.5371 109.453 17.2227 110.221 18.3184 110.221C19.0918 110.221 19.6602 109.828 19.8301 109.254ZM21.9395 111V104.906H22.9004V105.879H22.9238C23.2637 105.223 23.9141 104.801 24.8574 104.801C26.1934 104.801 26.9668 105.662 26.9668 107.045V111H25.9473V107.227C25.9473 106.242 25.4844 105.703 24.5469 105.703C23.5859 105.703 22.959 106.383 22.959 107.414V111H21.9395ZM28.5957 103.436H29.6152V104.906H30.7988V105.744H29.6152V109.365C29.6152 109.922 29.8496 110.174 30.3711 110.174C30.4883 110.174 30.7227 110.156 30.793 110.145V111C30.6699 111.029 30.3887 111.047 30.1484 111.047C29.0293 111.047 28.5957 110.59 28.5957 109.418V105.744H27.6875V104.906H28.5957V103.436Z" fill="#7C7C7C"/>
<path d="M16.0625 142.605H14.4922V141.035C11.3281 140.801 9.24219 138.984 9.23047 136.371H11.2344C11.3633 137.941 12.5586 138.984 14.4922 139.219V133.125L13.5547 132.867C11.0469 132.211 9.64062 130.676 9.64062 128.496C9.64062 125.93 11.5039 124.184 14.4922 123.891V122.25H16.0625V123.879C18.9922 124.125 20.9141 125.941 20.9961 128.473H19.0039C18.957 127.02 17.7969 125.906 16.0625 125.695V131.426L17.0586 131.672C19.918 132.434 21.2891 133.852 21.2891 136.219C21.2891 138.996 19.3555 140.754 16.0625 141.023V142.605ZM19.2617 136.383C19.2617 134.836 18.2773 133.91 16.0625 133.441V139.254C18.1016 139.148 19.2617 138.094 19.2617 136.383ZM11.6562 128.379C11.6562 129.773 12.6406 130.699 14.4922 131.086V125.695C12.8516 125.789 11.6562 126.902 11.6562 128.379ZM23.7969 128.965C23.7969 126.012 26.1875 123.809 29.375 123.809C32.3984 123.809 34.7773 125.859 34.7773 128.449C34.7773 130.336 33.9219 131.742 31.0977 134.66L26.8203 139.078V139.125H35.0586V141H23.9023V139.547L29.8555 133.277C32.1289 130.887 32.668 129.984 32.668 128.578C32.668 126.949 31.1797 125.648 29.3164 125.648C27.3359 125.648 25.8359 127.078 25.8359 128.965V128.977H23.7969V128.965ZM43.3086 141.281C40.0742 141.281 37.6836 139.266 37.5078 136.383H39.582C39.7695 138.188 41.3047 139.43 43.332 139.43C45.6289 139.43 47.2227 137.836 47.2227 135.562C47.2227 133.289 45.6172 131.66 43.3672 131.66C41.7852 131.66 40.4375 132.375 39.7461 133.559H37.7656L38.6914 124.09H48.3711V125.965H40.4258L39.9102 131.473H39.957C40.7188 130.453 42.125 129.844 43.7422 129.844C46.9883 129.844 49.332 132.223 49.332 135.504C49.332 138.902 46.8359 141.281 43.3086 141.281ZM57.4531 141.281C53.5039 141.281 51.2188 137.883 51.2188 132.539C51.2188 127.242 53.5273 123.809 57.4531 123.809C61.3789 123.809 63.6641 127.219 63.6641 132.527C63.6641 137.871 61.3906 141.281 57.4531 141.281ZM57.4531 139.441C60.0898 139.441 61.543 136.758 61.543 132.539C61.543 128.379 60.0664 125.66 57.4531 125.66C54.8398 125.66 53.3398 128.402 53.3398 132.527C53.3398 136.746 54.8047 139.441 57.4531 139.441ZM67.2969 141.117C66.5469 141.117 65.9609 140.531 65.9609 139.781C65.9609 139.031 66.5469 138.445 67.2969 138.445C68.0469 138.445 68.6328 139.031 68.6328 139.781C68.6328 140.531 68.0469 141.117 67.2969 141.117ZM74.6211 141V126.328H74.5742L70.0977 129.551V127.324L74.5977 124.09H76.6602V141H74.6211ZM80.8438 128.965C80.8438 126.012 83.2344 123.809 86.4219 123.809C89.4453 123.809 91.8242 125.859 91.8242 128.449C91.8242 130.336 90.9688 131.742 88.1445 134.66L83.8672 139.078V139.125H92.1055V141H80.9492V139.547L86.9023 133.277C89.1758 130.887 89.7148 129.984 89.7148 128.578C89.7148 126.949 88.2266 125.648 86.3633 125.648C84.3828 125.648 82.8828 127.078 82.8828 128.965V128.977H80.8438V128.965Z" fill="#070606"/>
</svg>
