<svg width="116" height="159" viewBox="0 0 116 159" fill="none" xmlns="http://www.w3.org/2000/svg">
<rect x="0.5" y="0.5" width="115" height="158" rx="7.5" fill="white"/>
<rect x="0.5" y="0.5" width="115" height="158" rx="7.5" stroke="#070606"/>
<rect width="100" height="80" transform="translate(8 12)" fill="#FFE8E8"/>
<path d="M55.5005 53.75C55.5005 54.72 56.2505 55.5 57.1705 55.5H59.0505C59.8505 55.5 60.5005 54.82 60.5005 53.97C60.5005 53.06 60.1005 52.73 59.5105 52.52L56.5005 51.47C55.9105 51.26 55.5105 50.94 55.5105 50.02C55.5105 49.18 56.1605 48.49 56.9605 48.49H58.8405C59.7605 48.49 60.5105 49.27 60.5105 50.24" stroke="#E60009" stroke-width="1.5" stroke-linecap="round" stroke-linejoin="round"/>
<path d="M58.0005 47.5V56.5" stroke="#E60009" stroke-width="1.5" stroke-linecap="round" stroke-linejoin="round"/>
<path d="M68.0005 52C68.0005 57.52 63.5205 62 58.0005 62C52.4805 62 48.0005 57.52 48.0005 52C48.0005 46.48 52.4805 42 58.0005 42" stroke="#E60009" stroke-width="1.5" stroke-linecap="round" stroke-linejoin="round"/>
<path d="M63.0005 43V47H67.0005" stroke="#E60009" stroke-width="1.5" stroke-linecap="round" stroke-linejoin="round"/>
<path d="M68.0005 42L63.0005 47" stroke="#E60009" stroke-width="1.5" stroke-linecap="round" stroke-linejoin="round"/>
<path d="M9.875 103.482V106.723H11.8965C12.9805 106.723 13.5957 106.137 13.5957 105.1C13.5957 104.086 12.9395 103.482 11.8496 103.482H9.875ZM9.875 107.654V111H8.82031V102.545H11.9902C13.6191 102.545 14.6855 103.541 14.6855 105.064C14.6855 106.242 14.0469 107.156 12.9863 107.49L14.9434 111H13.707L11.8965 107.654H9.875ZM18.3008 105.686C17.3457 105.686 16.6777 106.418 16.6133 107.432H19.9238C19.9004 106.412 19.2617 105.686 18.3008 105.686ZM19.9004 109.254H20.9023C20.7266 110.32 19.6953 111.105 18.3652 111.105C16.6191 111.105 15.5586 109.893 15.5586 107.977C15.5586 106.084 16.6367 104.801 18.3184 104.801C19.9648 104.801 20.9785 105.996 20.9785 107.842V108.229H16.6074V108.287C16.6074 109.453 17.293 110.221 18.3887 110.221C19.1621 110.221 19.7305 109.828 19.9004 109.254ZM27.0723 106.904H26.0762C25.9297 106.242 25.4141 105.697 24.5176 105.697C23.4629 105.697 22.748 106.57 22.748 107.953C22.748 109.371 23.4746 110.209 24.5293 110.209C25.3613 110.209 25.9062 109.77 26.082 109.037H27.084C26.9258 110.25 25.9062 111.105 24.5234 111.105C22.8359 111.105 21.7109 109.916 21.7109 107.953C21.7109 106.031 22.8301 104.801 24.5117 104.801C26.0352 104.801 26.9434 105.809 27.0723 106.904ZM30.4648 105.686C29.5098 105.686 28.8418 106.418 28.7773 107.432H32.0879C32.0645 106.412 31.4258 105.686 30.4648 105.686ZM32.0645 109.254H33.0664C32.8906 110.32 31.8594 111.105 30.5293 111.105C28.7832 111.105 27.7227 109.893 27.7227 107.977C27.7227 106.084 28.8008 104.801 30.4824 104.801C32.1289 104.801 33.1426 105.996 33.1426 107.842V108.229H28.7715V108.287C28.7715 109.453 29.457 110.221 30.5527 110.221C31.3262 110.221 31.8945 109.828 32.0645 109.254ZM34.2266 111V104.906H35.2461V111H34.2266ZM34.7363 103.881C34.3906 103.881 34.1035 103.594 34.1035 103.248C34.1035 102.896 34.3906 102.615 34.7363 102.615C35.0879 102.615 35.375 102.896 35.375 103.248C35.375 103.594 35.0879 103.881 34.7363 103.881ZM41.6211 104.906L39.3828 111H38.3398L36.0957 104.906H37.168L38.8496 109.916H38.873L40.5605 104.906H41.6211ZM44.6914 105.686C43.7363 105.686 43.0684 106.418 43.0039 107.432H46.3145C46.291 106.412 45.6523 105.686 44.6914 105.686ZM46.291 109.254H47.293C47.1172 110.32 46.0859 111.105 44.7559 111.105C43.0098 111.105 41.9492 109.893 41.9492 107.977C41.9492 106.084 43.0273 104.801 44.709 104.801C46.3555 104.801 47.3691 105.996 47.3691 107.842V108.229H42.998V108.287C42.998 109.453 43.6836 110.221 44.7793 110.221C45.5527 110.221 46.1211 109.828 46.291 109.254ZM50.709 111.105C49.1562 111.105 48.1016 109.863 48.1016 107.953C48.1016 106.043 49.1504 104.801 50.6855 104.801C51.5586 104.801 52.2617 105.229 52.625 105.896H52.6484V102.545H53.668V111H52.6953V109.969H52.6777C52.2852 110.672 51.5879 111.105 50.709 111.105ZM50.9023 105.697C49.8242 105.697 49.1445 106.576 49.1445 107.953C49.1445 109.336 49.8242 110.209 50.9023 110.209C51.9512 110.209 52.6543 109.318 52.6543 107.953C52.6543 106.594 51.9512 105.697 50.9023 105.697Z" fill="#7C7C7C"/>
<path d="M16.0625 142.605H14.4922V141.035C11.3281 140.801 9.24219 138.984 9.23047 136.371H11.2344C11.3633 137.941 12.5586 138.984 14.4922 139.219V133.125L13.5547 132.867C11.0469 132.211 9.64062 130.676 9.64062 128.496C9.64062 125.93 11.5039 124.184 14.4922 123.891V122.25H16.0625V123.879C18.9922 124.125 20.9141 125.941 20.9961 128.473H19.0039C18.957 127.02 17.7969 125.906 16.0625 125.695V131.426L17.0586 131.672C19.918 132.434 21.2891 133.852 21.2891 136.219C21.2891 138.996 19.3555 140.754 16.0625 141.023V142.605ZM19.2617 136.383C19.2617 134.836 18.2773 133.91 16.0625 133.441V139.254C18.1016 139.148 19.2617 138.094 19.2617 136.383ZM11.6562 128.379C11.6562 129.773 12.6406 130.699 14.4922 131.086V125.695C12.8516 125.789 11.6562 126.902 11.6562 128.379ZM23.7969 128.965C23.7969 126.012 26.1875 123.809 29.375 123.809C32.3984 123.809 34.7773 125.859 34.7773 128.449C34.7773 130.336 33.9219 131.742 31.0977 134.66L26.8203 139.078V139.125H35.0586V141H23.9023V139.547L29.8555 133.277C32.1289 130.887 32.668 129.984 32.668 128.578C32.668 126.949 31.1797 125.648 29.3164 125.648C27.3359 125.648 25.8359 127.078 25.8359 128.965V128.977H23.7969V128.965ZM43.3086 141.281C40.0742 141.281 37.6836 139.266 37.5078 136.383H39.582C39.7695 138.188 41.3047 139.43 43.332 139.43C45.6289 139.43 47.2227 137.836 47.2227 135.562C47.2227 133.289 45.6172 131.66 43.3672 131.66C41.7852 131.66 40.4375 132.375 39.7461 133.559H37.7656L38.6914 124.09H48.3711V125.965H40.4258L39.9102 131.473H39.957C40.7188 130.453 42.125 129.844 43.7422 129.844C46.9883 129.844 49.332 132.223 49.332 135.504C49.332 138.902 46.8359 141.281 43.3086 141.281ZM57.4531 141.281C53.5039 141.281 51.2188 137.883 51.2188 132.539C51.2188 127.242 53.5273 123.809 57.4531 123.809C61.3789 123.809 63.6641 127.219 63.6641 132.527C63.6641 137.871 61.3906 141.281 57.4531 141.281ZM57.4531 139.441C60.0898 139.441 61.543 136.758 61.543 132.539C61.543 128.379 60.0664 125.66 57.4531 125.66C54.8398 125.66 53.3398 128.402 53.3398 132.527C53.3398 136.746 54.8047 139.441 57.4531 139.441ZM67.2969 141.117C66.5469 141.117 65.9609 140.531 65.9609 139.781C65.9609 139.031 66.5469 138.445 67.2969 138.445C68.0469 138.445 68.6328 139.031 68.6328 139.781C68.6328 140.531 68.0469 141.117 67.2969 141.117ZM74.6211 141V126.328H74.5742L70.0977 129.551V127.324L74.5977 124.09H76.6602V141H74.6211ZM80.8438 128.965C80.8438 126.012 83.2344 123.809 86.4219 123.809C89.4453 123.809 91.8242 125.859 91.8242 128.449C91.8242 130.336 90.9688 131.742 88.1445 134.66L83.8672 139.078V139.125H92.1055V141H80.9492V139.547L86.9023 133.277C89.1758 130.887 89.7148 129.984 89.7148 128.578C89.7148 126.949 88.2266 125.648 86.3633 125.648C84.3828 125.648 82.8828 127.078 82.8828 128.965V128.977H80.8438V128.965Z" fill="#070606"/>
</svg>
